<svg width="24" height="24" viewBox="0 0 24 24" fill="none" xmlns="http://www.w3.org/2000/svg">
<g clip-path="url(#clip0_537_634)">
<path d="M10.9764 0.427151L0.425489 10.9752C-0.14183 11.5429 -0.14183 12.4585 0.425489 13.0249L10.9764 23.5742C11.5437 24.1419 12.4599 24.1419 13.0272 23.5742L17.4511 19.1511C17.9593 18.6426 17.9593 17.8201 17.4511 17.3116C16.9429 16.8031 16.1197 16.8031 15.6115 17.3116L12.2583 20.6645C12.1171 20.8059 11.9034 20.8059 11.7622 20.6645L3.33571 12.2411C3.19449 12.0997 3.19449 11.8859 3.33571 11.7446L11.761 3.32114C11.9022 3.17982 12.1159 3.17982 12.2571 3.32114L15.6103 6.67411C16.1185 7.18261 16.9417 7.18261 17.4499 6.67411C17.9581 6.16561 17.9581 5.34307 17.4499 4.83457L13.0272 0.412657C12.4575 -0.141743 11.5413 -0.138119 10.9764 0.427151Z" fill="url(#paint0_linear_537_634)"/>
<path d="M10.9764 0.427151L0.425489 10.9752C-0.14183 11.5429 -0.14183 12.4585 0.425489 13.0249L10.9764 23.5742C11.5437 24.1419 12.4599 24.1419 13.0272 23.5742L17.4511 19.1511C17.9593 18.6426 17.9593 17.8201 17.4511 17.3116C16.9429 16.8031 16.1197 16.8031 15.6115 17.3116L12.2583 20.6645C12.1171 20.8059 11.9034 20.8059 11.7622 20.6645L3.33571 12.2411C3.19449 12.0997 3.19449 11.8859 3.33571 11.7446L11.761 3.32114C12.1123 3.01797 12.6856 2.40318 13.5281 2.25945C14.1546 2.15316 14.839 2.38748 15.5814 2.96483C15.0853 2.4684 14.2331 1.61808 13.0272 0.412657C12.4575 -0.141743 11.5413 -0.138119 10.9764 0.427151Z" fill="url(#paint1_linear_537_634)"/>
<path d="M18.4723 16.332C18.9805 16.8405 19.8037 16.8405 20.3119 16.332L23.5746 13.0696C24.1419 12.5019 24.1419 11.5864 23.5746 11.0199L20.2829 7.74058C19.7736 7.23329 18.9503 7.2345 18.4422 7.74179C17.934 8.25029 17.934 9.07283 18.4422 9.58134L20.6656 11.8038C20.8068 11.9451 20.8068 12.1589 20.6656 12.3002L18.4723 14.4924C17.9642 15.0009 17.9642 15.8235 18.4723 16.332Z" fill="url(#paint2_linear_537_634)"/>
<path d="M12.0542 14.9019C13.6275 14.9019 14.9029 13.6267 14.9029 12.0538C14.9029 10.4808 13.6275 9.20569 12.0542 9.20569C10.481 9.20569 9.20557 10.4808 9.20557 12.0538C9.20557 13.6267 10.481 14.9019 12.0542 14.9019Z" fill="url(#paint3_linear_537_634)"/>
</g>
<defs>
<linearGradient id="paint0_linear_537_634" x1="6.62123" y1="6.38802" x2="16.8058" y2="12.5059" gradientUnits="userSpaceOnUse">
<stop stop-color="#4285EB"/>
<stop offset="1" stop-color="#2EC7FF"/>
</linearGradient>
<linearGradient id="paint1_linear_537_634" x1="10.3659" y1="-0.572278" x2="5.28578" y2="24.9048" gradientUnits="userSpaceOnUse">
<stop stop-color="#29CDFF"/>
<stop offset="0.38" stop-color="#148EFF"/>
<stop offset="1" stop-color="#0A60FF"/>
</linearGradient>
<linearGradient id="paint2_linear_537_634" x1="22.4788" y1="5.89263" x2="16.0315" y2="15.9334" gradientUnits="userSpaceOnUse">
<stop stop-color="#FA816E"/>
<stop offset="0.41" stop-color="#F74A5C"/>
<stop offset="1" stop-color="#F51D2C"/>
</linearGradient>
<linearGradient id="paint3_linear_537_634" x1="13.3069" y1="7.3029" x2="11.1428" y2="15.9043" gradientUnits="userSpaceOnUse">
<stop stop-color="#FA8E7D"/>
<stop offset="0.51" stop-color="#F74A5C"/>
<stop offset="1" stop-color="#F51D2C"/>
</linearGradient>
<clipPath id="clip0_537_634">
<rect width="24" height="24" fill="white"/>
</clipPath>
</defs>
</svg>
