<svg width="24" height="24" viewBox="0 0 24 24" fill="none" xmlns="http://www.w3.org/2000/svg">
<path d="M23.9995 12.3544L18.671 11.3687L18.0613 12.4244L16.5606 15.0227L12.6641 21.769C12.4935 22.0644 12.0436 21.9429 12.0436 21.6015V15.9317V15.3162C12.0436 14.9966 11.8182 14.7218 11.5059 14.6604L5.43522 13.4679L0.000976562 12.4743C0.00923097 12.7566 0.0759046 13.0375 0.202857 13.2975L4.6879 21.0804C5.31361 22.1663 6.4689 22.8343 7.71836 22.8327L16.3194 22.8212C17.5682 22.8196 18.7212 22.1492 19.3444 21.0626L23.7337 13.4083C23.9208 13.0828 24.0088 12.7176 23.9995 12.3544Z" fill="url(#paint0_linear_537_630)"/>
<path d="M6.04648 12.4069L7.54947 9.79866L11.4227 3.07713C11.5931 2.78143 12.0435 2.90281 12.0435 3.24446V9.52646C12.0435 9.8464 12.2693 10.1215 12.5821 10.1824L18.6709 11.3687L23.9994 12.3545C23.9926 12.0877 23.9327 11.8224 23.82 11.5743C23.7935 11.5159 23.765 11.4581 23.7326 11.402L19.3377 3.75564C18.7132 2.66928 17.559 2 16.3099 2H7.67943C6.42825 2 5.27247 2.67138 4.6488 3.76049L0.266412 11.4131C0.256323 11.4306 0.247569 11.4487 0.238054 11.4665C0.069805 11.7806 -0.00926692 12.1283 0.000862742 12.4743L5.4351 13.4679L6.04648 12.4069Z" fill="url(#paint1_linear_537_630)"/>
<defs>
<linearGradient id="paint0_linear_537_630" x1="23.4983" y1="17.039" x2="0.432514" y2="17.2526" gradientUnits="userSpaceOnUse">
<stop stop-color="#3585A3"/>
<stop offset="1" stop-color="#00DEAE"/>
</linearGradient>
<linearGradient id="paint1_linear_537_630" x1="1.16236" y1="7.87517" x2="21.6534" y2="7.34093" gradientUnits="userSpaceOnUse">
<stop stop-color="#3585A3"/>
<stop offset="1" stop-color="#00DEAE"/>
</linearGradient>
</defs>
</svg>
