<svg width="240" height="80" viewBox="0 0 240 80" fill="none" xmlns="http://www.w3.org/2000/svg">
<path d="M232.487 43.9172C231.879 42.355 230.919 41.0769 229.609 40.0828C228.345 39.0888 226.753 38.5917 224.834 38.5917C224.226 38.5917 223.757 38.6154 223.43 38.6627C221.136 38.9467 219.334 39.6805 218.023 40.8639C216.76 42 215.8 43.4911 215.145 45.3373L232.487 43.9172ZM207 49.3136C207 44.2959 208.381 40.0592 211.143 36.6035C213.904 33.1006 217.626 30.9704 222.306 30.213C223.289 30.071 224.272 30 225.255 30C228.157 30 230.709 30.6864 232.909 32.0592C235.155 33.3846 236.887 35.3254 238.104 37.8817C239.368 40.3905 240 43.3491 240 46.7574C240 47.8462 239.953 48.6746 239.86 49.2426V49.8107L215.215 51.5148C215.636 53.1243 216.596 54.6391 218.094 56.0592C219.638 57.432 221.136 58.0947 222.587 58.0473H223.009C223.711 58 224.46 57.7633 225.255 57.3373C226.098 56.9112 227.104 56.3195 228.274 55.5621C228.977 55.1361 229.726 54.9231 230.521 54.9231C231.411 54.9231 232.253 55.1834 233.049 55.7041L237.402 58.1893L237.051 58.6864C235.319 61.0059 233.166 62.8047 230.591 64.0828C228.017 65.3609 225.255 66 222.306 66C219.217 66 216.502 65.3136 214.162 63.9408C211.868 62.568 210.089 60.6272 208.826 58.1183C207.609 55.5621 207 52.6272 207 49.3136Z" fill="#222222"/>
<path d="M203 22V60.6721C203 61.8355 202.581 62.836 201.744 63.6737C200.907 64.5579 199.884 65 198.674 65H194V25.0016L203 22Z" fill="#222222"/>
<path d="M171.338 55.9104C172.732 55.9104 174.057 55.6302 175.312 55.07C176.613 54.4631 177.682 53.6461 178.519 52.619V42.605C177.775 41.8114 176.845 41.2278 175.73 40.8543C174.661 40.4809 173.522 40.3641 172.314 40.5042C169.572 40.7843 167.573 41.6713 166.318 43.1653C165.063 44.6592 164.436 46.5499 164.436 48.8375C164.436 50.9851 164.97 52.7124 166.039 54.0196C167.155 55.2801 168.921 55.9104 171.338 55.9104ZM156 49.5378C156 46.5966 156.581 43.8422 157.743 41.2745C158.905 38.7068 160.532 36.5826 162.623 34.902C164.761 33.2213 167.201 32.2176 169.943 31.8908C170.176 31.8441 170.524 31.8207 170.989 31.8207C172.383 31.8207 173.755 32.1475 175.102 32.8011C176.45 33.408 177.589 34.225 178.519 35.2521V31.1905L188 30V63.4034C188 66.9048 186.931 70.1727 184.793 73.2073C182.655 76.2418 179.82 78.296 176.288 79.3697C174.986 79.7899 173.638 80 172.244 80C169.409 80 166.69 79.2764 164.087 77.8291C161.484 76.3819 159.416 74.7246 157.882 72.8571L160.183 70.1961C160.973 69.2624 162.065 68.7955 163.46 68.7955C164.436 68.7955 165.365 69.0289 166.248 69.4958C168.758 70.7563 170.757 71.3866 172.244 71.3866C172.755 71.3866 173.22 71.3165 173.638 71.1765C175.079 70.7096 176.241 69.7059 177.124 68.1653C178.054 66.6246 178.519 65.1774 178.519 63.8235V59.902C177.264 61.3492 175.846 62.5163 174.266 63.4034C172.686 64.2904 171.175 64.7572 169.734 64.8039C166.992 64.944 164.575 64.3604 162.484 63.0532C160.439 61.746 158.835 59.902 157.673 57.521C156.558 55.1401 156 52.479 156 49.5378Z" fill="#222222"/>
<path d="M138.354 31.2094C139.194 31.0698 139.987 31 140.734 31C144.419 31 147.218 32.3963 149.131 35.1889C151.044 37.9815 152 42.0308 152 47.3368V60.6715C152 61.835 151.58 62.8357 150.74 63.6735C149.901 64.5578 148.874 65 147.661 65H142.413V48.0349C142.413 45.4285 141.9 43.4271 140.874 42.0308C139.894 40.6345 138.541 39.9363 136.815 39.9363C135.042 39.9363 133.409 40.6112 131.916 41.961C130.424 43.3107 129.514 45.0794 129.187 47.2669V65H121V34.2813L129.187 33.0945V36.8645C131.38 33.6995 134.436 31.8145 138.354 31.2094Z" fill="#222222"/>
<path d="M113.9 31.7695V60.1728C113.9 61.4787 113.442 62.5981 112.525 63.5309C111.608 64.5103 110.485 65 109.156 65H105.031V33.0988L113.9 31.7695ZM104 20.9959C104 19.2236 104.665 17.6145 105.994 16.1687C107.323 14.7229 108.835 14 110.531 14C111.815 14 112.869 14.4431 113.694 15.3292C114.565 16.2154 115 17.358 115 18.7572C115 20.5761 114.335 22.1852 113.006 23.5844C111.677 24.9835 110.142 25.6831 108.4 25.6831C107.163 25.6831 106.108 25.2401 105.238 24.3539C104.413 23.4678 104 22.3484 104 20.9959Z" fill="#222222"/>
<path fill-rule="evenodd" clip-rule="evenodd" d="M53.4383 13.5916C53.4179 14.2633 53.3783 14.9322 53.3224 15.5986C53.4148 14.9536 53.459 14.2952 53.4391 13.6183C53.4388 13.6093 53.4386 13.6005 53.4383 13.5916ZM99.9462 56.1821C99.9041 56.5963 99.8386 57.0134 99.7536 57.4318C98.3709 64.2131 91.7135 69.8666 85.0561 69.9962C77.1463 70.1449 71.4107 65.9072 69.5718 58.286C68.9751 55.8114 68.693 53.3415 68.6359 50.8768C68.562 54.0048 68.8123 57.1417 69.5705 60.286C71.4094 67.9072 77.145 72.1449 85.0548 71.9962C91.7122 71.8666 98.3696 66.2131 99.7523 59.4318C99.9763 58.3295 100.065 57.2361 99.9462 56.1821ZM72.8016 25.5358C72.8062 25.5211 72.8108 25.5064 72.8155 25.4917C73.0031 24.8967 73.1995 24.2739 72.7748 23.482C71.7303 24.0165 70.989 24.873 70.2573 25.7184C70.0823 25.9205 69.908 26.122 69.7301 26.3183C61.9507 34.9617 56.3687 45.0977 51.1639 55.4881C50.4465 56.9186 49.7473 58.3585 49.0481 59.7981C48.082 61.7875 47.1162 63.7763 46.1033 65.7392C44.5577 68.734 42.742 69.6314 40.0744 68.9499C37.5557 68.303 36.0431 66.4859 35.8487 63.6984C35.8407 64.1046 35.8335 64.5109 35.8273 64.9173C35.776 68.1472 37.3263 70.2444 40.0731 70.9499C42.7407 71.6314 44.5564 70.734 46.102 67.7392C47.1149 65.7763 48.0807 63.7875 49.0468 61.7981C49.746 60.3585 50.4452 58.9186 51.1626 57.4881C56.3674 47.0977 61.9494 36.9617 69.7288 28.3183C69.9066 28.122 70.081 27.9205 70.2559 27.7184C70.9877 26.873 71.729 26.0165 72.7735 25.482C72.7832 25.5 72.7925 25.5179 72.8016 25.5358ZM40.2931 15.9845C40.3494 15.5915 40.3974 15.1975 40.4282 14.8049C40.4435 14.6132 40.3968 14.4173 40.3366 14.1647C40.3049 14.0317 40.2695 13.8829 40.2374 13.7107C39.134 14.1879 38.5294 15.0474 37.944 15.8796C37.8229 16.0517 37.7027 16.2226 37.579 16.3887C29.9626 26.6159 24.6227 38.1532 19.5761 49.849C18.3786 52.6271 17.2159 55.4213 16.0533 58.2152C14.9242 60.9284 13.7953 63.6413 12.6347 66.3391C11.3312 69.3723 9.70642 70.3753 7.32744 69.857C4.46793 69.234 2.88529 67.4221 2.73065 64.5212C2.72748 64.868 2.72422 65.2125 2.72098 65.5546L2.71716 65.9587C2.68922 69.1886 4.28607 71.1947 7.32613 71.857C9.7051 72.3753 11.3299 71.3723 12.6334 68.3391C13.794 65.6413 14.9229 62.9284 16.052 60.2152C17.2146 57.4213 18.3773 54.6271 19.5748 51.849C24.6214 40.1532 29.9613 28.6159 37.5777 18.3887C37.7014 18.2226 37.8216 18.0517 37.9427 17.8796C38.5281 17.0474 39.1327 16.1879 40.236 15.7107C40.2544 15.8092 40.2738 15.8999 40.2931 15.9845Z" fill="url(#paint0_linear_532_601)"/>
<path d="M10.8932 41.364C11.7265 39.2523 12.3876 37.4862 13.1092 35.7441C17.383 25.4065 22.3318 15.4865 29.9064 7.21261C31.9408 4.99056 34.1941 3.03727 36.8152 1.5975C44.8087 -2.789 53.1654 2.28379 53.44 11.6183C53.5704 16.0624 52.751 20.3625 51.8106 24.653C51.0843 27.9789 50.3115 31.2952 49.5108 34.8418C50.7864 34.3283 51.0052 33.3109 51.4568 32.5382C54.5667 27.187 57.7138 21.8551 61.941 17.3342C65.4187 13.6148 69.3247 10.7352 74.6925 10.9368C80.754 11.1672 83.943 14.4259 84.1851 20.6937C84.4505 27.4078 82.6348 33.8244 81.5873 40.3561C80.9309 44.4403 80.0184 48.5196 80.8192 52.7142C81.4337 55.9248 83.1982 58.0461 85.6889 58.4205C88.0027 58.766 90.4747 57.2974 91.8993 54.6195C92.4533 53.5732 92.8444 52.4358 93.3193 51.3416C94.3621 48.9324 96.8621 48.5436 98.4916 50.6025C100.084 52.6182 100.247 55.0034 99.7532 57.4318C98.3705 64.2131 91.7131 69.8666 85.0557 69.9962C77.146 70.145 71.4104 65.9073 69.5714 58.2861C67.7465 50.7177 68.8638 43.1925 70.3629 35.7297C71.024 32.447 71.9085 29.2123 72.6813 25.9536C72.8582 25.2097 73.3098 24.4803 72.7744 23.482C71.4802 24.1443 70.6515 25.3009 69.7297 26.3184C61.9503 34.9618 56.3684 45.0978 51.1635 55.4881C49.4549 58.8956 47.8488 62.3558 46.1029 65.7393C44.5573 68.734 42.7416 69.6315 40.074 68.95C37.3273 68.2445 35.777 66.1472 35.8282 62.9173C36.0656 47.4734 37.6113 32.1542 40.1439 16.9359C40.2602 16.2304 40.372 15.5153 40.4278 14.805C40.4511 14.5122 40.3301 14.2099 40.237 13.7108C38.9055 14.2867 38.3003 15.4193 37.5787 16.3887C29.9622 26.6159 24.6223 38.1533 19.5758 49.849C17.2154 55.3249 14.9901 60.8633 12.6344 66.3392C11.3308 69.3723 9.70604 70.3753 7.32706 69.857C4.28701 69.1947 2.69016 67.1887 2.71809 63.9588C2.80189 55.061 2.12219 46.2448 0.190144 37.5486C-0.373174 35.0146 0.273944 34.0115 2.68551 33.3732C5.73022 32.567 8.66786 34.2371 9.85967 37.539C10.2554 38.638 10.4695 39.809 10.8792 41.3736L10.8932 41.364Z" fill="#222222"/>
<path d="M76 14C79.5 15 82.5 18.5 80.514 26.5" stroke="#FCFCFC" stroke-width="2" stroke-linecap="round"/>
<defs>
<linearGradient id="paint0_linear_532_601" x1="35.7233" y1="17.9722" x2="77.3958" y2="79.1172" gradientUnits="userSpaceOnUse">
<stop stop-color="#9EFFCE"/>
<stop offset="0.4" stop-color="#CBE4FF"/>
<stop offset="1" stop-color="#FFB9FD"/>
</linearGradient>
</defs>
</svg>
