<svg width="180" height="60" viewBox="0 0 180 60" fill="none" xmlns="http://www.w3.org/2000/svg">
<path d="M174.365 32.9379C173.909 31.7663 173.189 30.8077 172.206 30.0621C171.259 29.3166 170.065 28.9438 168.626 28.9438C168.169 28.9438 167.818 28.9615 167.572 28.997C165.852 29.2101 164.501 29.7604 163.518 30.6479C162.57 31.5 161.85 32.6183 161.359 34.003L174.365 32.9379ZM155.25 36.9852C155.25 33.2219 156.286 30.0444 158.357 27.4527C160.428 24.8254 163.219 23.2278 166.73 22.6598C167.467 22.5533 168.204 22.5 168.941 22.5C171.118 22.5 173.031 23.0148 174.681 24.0444C176.366 25.0385 177.665 26.4941 178.578 28.4112C179.526 30.2929 180 32.5118 180 35.068C180 35.8846 179.965 36.5059 179.895 36.932V37.358L161.411 38.6361C161.727 39.8432 162.447 40.9793 163.57 42.0444C164.729 43.074 165.852 43.571 166.94 43.5355H167.256C167.783 43.5 168.345 43.3225 168.941 43.003C169.573 42.6834 170.328 42.2396 171.206 41.6716C171.732 41.3521 172.294 41.1923 172.891 41.1923C173.558 41.1923 174.19 41.3876 174.787 41.7781L178.052 43.642L177.788 44.0148C176.489 45.7544 174.874 47.1036 172.944 48.0621C171.013 49.0207 168.941 49.5 166.73 49.5C164.413 49.5 162.377 48.9852 160.621 47.9556C158.901 46.926 157.567 45.4704 156.619 43.5888C155.706 41.6716 155.25 39.4704 155.25 36.9852Z" fill="#FCFCFC"/>
<path d="M152.25 16.5V45.5041C152.25 46.3766 151.936 47.127 151.308 47.7553C150.68 48.4184 149.913 48.75 149.006 48.75H145.5V18.7512L152.25 16.5Z" fill="#FCFCFC"/>
<path d="M128.503 41.9328C129.549 41.9328 130.542 41.7227 131.484 41.3025C132.46 40.8473 133.261 40.2346 133.889 39.4643V31.9538C133.331 31.3585 132.634 30.9209 131.797 30.6408C130.996 30.3606 130.142 30.2731 129.235 30.3782C127.179 30.5882 125.68 31.2535 124.739 32.3739C123.797 33.4944 123.327 34.9125 123.327 36.6281C123.327 38.2388 123.728 39.5343 124.529 40.5147C125.366 41.4601 126.691 41.9328 128.503 41.9328ZM117 37.1534C117 34.9475 117.436 32.8817 118.307 30.9559C119.179 29.0301 120.399 27.437 121.967 26.1765C123.571 24.916 125.401 24.1632 127.458 23.9181C127.632 23.8831 127.893 23.8655 128.242 23.8655C129.288 23.8655 130.316 24.1106 131.327 24.6008C132.338 25.056 133.192 25.6688 133.889 26.4391V23.3929L141 22.5V47.5525C141 50.1786 140.198 52.6296 138.595 54.9055C136.991 57.1814 134.865 58.722 132.216 59.5273C131.24 59.8424 130.229 60 129.183 60C127.057 60 125.017 59.4573 123.065 58.3718C121.113 57.2864 119.562 56.0434 118.412 54.6429L120.137 52.6471C120.73 51.9468 121.549 51.5966 122.595 51.5966C123.327 51.5966 124.024 51.7717 124.686 52.1218C126.569 53.0672 128.068 53.5399 129.183 53.5399C129.566 53.5399 129.915 53.4874 130.229 53.3824C131.309 53.0322 132.181 52.2794 132.843 51.1239C133.54 49.9685 133.889 48.883 133.889 47.8676V44.9265C132.948 46.0119 131.885 46.8873 130.699 47.5525C129.514 48.2178 128.381 48.5679 127.301 48.6029C125.244 48.708 123.431 48.2703 121.863 47.2899C120.329 46.3095 119.126 44.9265 118.255 43.1408C117.418 41.355 117 39.3592 117 37.1534Z" fill="#FCFCFC"/>
<path d="M103.766 23.4071C104.396 23.3024 104.99 23.25 105.55 23.25C108.314 23.25 110.414 24.2972 111.848 26.3917C113.283 28.4861 114 31.5231 114 35.5026V45.5036C114 46.3763 113.685 47.1268 113.055 47.7551C112.426 48.4184 111.656 48.75 110.746 48.75H106.81V36.0262C106.81 34.0714 106.425 32.5703 105.655 31.5231C104.92 30.4759 103.906 29.9523 102.611 29.9523C101.282 29.9523 100.057 30.4584 98.9374 31.4707C97.8177 32.4831 97.1354 33.8095 96.8905 35.4502V48.75H90.75V25.711L96.8905 24.8208V27.6484C98.535 25.2746 100.827 23.8609 103.766 23.4071Z" fill="#FCFCFC"/>
<path d="M85.425 23.8272V45.1296C85.425 46.1091 85.0813 46.9486 84.3938 47.6481C83.7063 48.3827 82.8641 48.75 81.8672 48.75H78.7734V24.8241L85.425 23.8272ZM78 15.7469C78 14.4177 78.4984 13.2109 79.4953 12.1265C80.4922 11.0422 81.6266 10.5 82.8984 10.5C83.8609 10.5 84.6516 10.8323 85.2703 11.4969C85.9234 12.1615 86.25 13.0185 86.25 14.0679C86.25 15.4321 85.7516 16.6389 84.7547 17.6883C83.7578 18.7377 82.6063 19.2623 81.3 19.2623C80.3719 19.2623 79.5813 18.93 78.9281 18.2654C78.3094 17.6008 78 16.7613 78 15.7469Z" fill="#FCFCFC"/>
<path fill-rule="evenodd" clip-rule="evenodd" d="M40.0787 10.1936C40.0634 10.6974 40.0337 11.1991 39.9918 11.6989C40.0611 11.2152 40.0942 10.7213 40.0793 10.2137C40.0791 10.207 40.0789 10.2003 40.0787 10.1936ZM74.9597 42.1365C74.9281 42.4472 74.879 42.76 74.8152 43.0738C73.7782 48.1598 68.7851 52.3999 63.7921 52.4971C57.8598 52.6087 53.5581 49.4304 52.1789 43.7145C51.7313 41.8585 51.5197 40.0061 51.4769 38.1576C51.4215 40.5036 51.6092 42.8562 52.1779 45.2145C53.5571 50.9304 57.8588 54.1087 63.7911 53.9971C68.7841 53.8999 73.7772 49.6598 74.8142 44.5738C74.9822 43.7471 75.0488 42.927 74.9597 42.1365ZM54.6012 19.1518C54.6046 19.1408 54.6081 19.1298 54.6116 19.1187C54.7523 18.6725 54.8997 18.2054 54.5811 17.6114C53.7977 18.0123 53.2417 18.6547 52.6929 19.2888C52.5617 19.4404 52.431 19.5915 52.2976 19.7387C46.463 26.2213 42.2766 33.8233 38.3729 41.616C37.8349 42.689 37.3104 43.7689 36.7861 44.8487C36.0615 46.3406 35.3371 47.8322 34.5775 49.3044C33.4183 51.5504 32.0565 52.2235 30.0558 51.7124C28.1668 51.2272 27.0323 49.8644 26.8865 47.7737C26.8805 48.0784 26.8751 48.3831 26.8704 48.6879C26.832 51.1103 27.9948 52.6833 30.0548 53.2124C32.0555 53.7235 33.4173 53.0504 34.5765 50.8044C35.3361 49.3322 36.0605 47.8406 36.7851 46.3487C37.3094 45.2689 37.8339 44.189 38.3719 43.116C42.2756 35.3233 46.4621 27.7213 52.2966 21.2387C52.43 21.0915 52.5608 20.9404 52.692 20.7888C53.2408 20.1547 53.7967 19.5123 54.5801 19.1114C54.5874 19.125 54.5944 19.1384 54.6012 19.1518ZM30.2198 11.9883C30.2621 11.6936 30.298 11.3981 30.3212 11.1037C30.3326 10.9599 30.2976 10.813 30.2525 10.6235C30.2287 10.5237 30.2021 10.4122 30.178 10.283C29.3505 10.6409 28.897 11.2855 28.458 11.9096C28.3672 12.0387 28.277 12.1669 28.1843 12.2915C22.472 19.9619 18.467 28.6149 14.6821 37.3867C13.784 39.4703 12.9119 41.5659 12.0399 43.6614C11.1932 45.6963 10.3465 47.731 9.47606 49.7543C8.4984 52.0292 7.27981 52.7814 5.49558 52.3927C3.35094 51.9255 2.16397 50.5666 2.04799 48.3909C2.04561 48.6509 2.04316 48.9093 2.04073 49.1659L2.03787 49.469C2.01692 51.8914 3.21455 53.396 5.49459 53.8927C7.27882 54.2814 8.49741 53.5292 9.47507 51.2543C10.3455 49.231 11.1922 47.1963 12.0389 45.1614C12.9109 43.0659 13.783 40.9703 14.6811 38.8867C18.4661 30.1149 22.471 21.4619 28.1833 13.7915C28.276 13.6669 28.3662 13.5387 28.457 13.4096C28.8961 12.7855 29.3495 12.1409 30.177 11.783C30.1908 11.8568 30.2054 11.9249 30.2198 11.9883Z" fill="#F5F1E7"/>
<path d="M8.1699 31.023C8.7949 29.4392 9.29071 28.1146 9.83192 26.808C13.0372 19.0549 16.7489 11.6149 22.4298 5.40946C23.9556 3.74292 25.6456 2.27795 27.6114 1.19813C33.6065 -2.09175 39.874 1.71284 40.08 8.71373C40.1778 12.0468 39.5633 15.2719 38.858 18.4898C38.3133 20.9842 37.7336 23.4714 37.1331 26.1314C38.0898 25.7462 38.2539 24.9831 38.5926 24.4036C40.925 20.3903 43.2854 16.3913 46.4558 13.0006C49.064 10.2111 51.9935 8.05143 56.0194 8.20261C60.5655 8.37538 62.9573 10.8194 63.1388 15.5202C63.3379 20.5558 61.9761 25.3683 61.1905 30.2671C60.6982 33.3302 60.0138 36.3897 60.6144 39.5356C61.0753 41.9436 62.3986 43.5346 64.2666 43.8153C66.002 44.0745 67.8561 42.9731 68.9245 40.9646C69.34 40.1799 69.6333 39.3269 69.9895 38.5062C70.7716 36.6993 72.6466 36.4077 73.8687 37.9519C75.0628 39.4636 75.185 41.2525 74.8149 43.0739C73.7779 48.1598 68.7848 52.4 63.7918 52.4972C57.8595 52.6087 53.5578 49.4304 52.1786 43.7146C50.8099 38.0383 51.6478 32.3944 52.7722 26.7972C53.268 24.3352 53.9314 21.9092 54.511 19.4652C54.6437 18.9073 54.9824 18.3602 54.5808 17.6115C53.6101 18.1082 52.9886 18.9757 52.2973 19.7388C46.4628 26.2213 42.2763 33.8233 38.3726 41.6161C37.0912 44.1717 35.8866 46.7669 34.5772 49.3045C33.418 51.5505 32.0562 52.2236 30.0555 51.7125C27.9955 51.1834 26.8327 49.6104 26.8711 47.188C27.0492 35.605 28.2084 24.1157 30.1079 12.7019C30.1952 12.1728 30.279 11.6365 30.3209 11.1037C30.3383 10.8842 30.2476 10.6574 30.1777 10.2831C29.1791 10.715 28.7252 11.5645 28.184 12.2916C22.4717 19.9619 18.4668 28.615 14.6818 37.3868C12.9115 41.4937 11.2425 45.6474 9.47577 49.7544C8.49811 52.0292 7.27953 52.7815 5.4953 52.3928C3.21525 51.896 2.01762 50.3915 2.03857 47.9691C2.10142 41.2957 1.59164 34.6836 0.142608 28.1614C-0.279881 26.2609 0.205458 25.5087 2.01413 25.0299C4.29766 24.4252 6.50089 25.6778 7.39475 28.1542C7.69154 28.9785 7.85216 29.8568 8.15942 31.0302L8.1699 31.023Z" fill="url(#paint0_linear_818_114)"/>
<path d="M57 10.5C59.625 11.25 61.875 13.875 60.3855 19.875" stroke="#FCFCFC" stroke-width="2" stroke-linecap="round"/>
<defs>
<linearGradient id="paint0_linear_818_114" x1="25.4464" y1="3.9375" x2="64.6497" y2="53.275" gradientUnits="userSpaceOnUse">
<stop stop-color="#9EFFCE"/>
<stop offset="0.4" stop-color="#CBE4FF"/>
<stop offset="1" stop-color="#FFB9FD"/>
</linearGradient>
</defs>
</svg>
