<svg width="186" height="42" viewBox="0 0 186 42" fill="none" xmlns="http://www.w3.org/2000/svg">
<path d="M5.9466 21.682C6.36327 20.6262 6.69381 19.7431 7.05461 18.872C9.1915 13.7033 11.6659 8.74324 15.4532 4.6063C16.4704 3.49528 17.597 2.51864 18.9076 1.79875C22.9043 -0.3945 27.0827 2.1419 27.22 6.80915C27.2852 9.0312 26.8755 11.1813 26.4053 13.3265C26.0422 14.9894 25.6558 16.6476 25.2554 18.4209C25.8932 18.1641 26.0026 17.6554 26.2284 17.2691C27.7833 14.5935 29.3569 11.9275 31.4705 9.6671C33.2094 7.80739 35.1623 6.36762 37.8463 6.46841C40.877 6.58359 42.4715 8.21293 42.5926 11.3468C42.7252 14.7039 41.8174 17.9122 41.2937 21.1781C40.9655 23.2201 40.5092 25.2598 40.9096 27.3571C41.2169 28.9624 42.0991 30.0231 43.3444 30.2102C44.5013 30.383 45.7374 29.6487 46.4497 28.3097C46.7267 27.7866 46.9222 27.2179 47.1596 26.6708C47.6811 25.4662 48.9311 25.2718 49.7458 26.3012C50.5419 27.3091 50.6233 28.5017 50.3766 29.7159C49.6853 33.1066 46.3566 35.9333 43.0279 35.9981C39.073 36.0725 36.2052 33.9536 35.2857 30.143C34.3732 26.3588 34.9319 22.5962 35.6814 18.8648C36.012 17.2235 36.4543 15.6062 36.8407 13.9768C36.9291 13.6049 37.1549 13.2401 36.8872 12.741C36.2401 13.0722 35.8258 13.6505 35.3649 14.1592C31.4752 18.4809 28.6842 23.5489 26.0817 28.7441C25.2275 30.4478 24.4244 32.1779 23.5515 33.8696C22.7786 35.367 21.8708 35.8157 20.537 35.475C19.1636 35.1222 18.3885 34.0736 18.4141 32.4587C18.5328 24.7367 19.3056 17.0771 20.5719 9.46793C20.6301 9.11518 20.686 8.75764 20.7139 8.4025C20.7256 8.25612 20.665 8.10495 20.6185 7.85539C19.9527 8.14334 19.6501 8.70965 19.2893 9.19437C15.4811 14.308 12.8112 20.0766 10.2879 25.9245C9.1077 28.6625 7.99503 31.4316 6.81718 34.1696C6.16541 35.6861 5.35302 36.1877 4.16353 35.9285C2.6435 35.5974 1.84508 34.5943 1.85905 32.9794C1.90095 28.5305 1.56109 24.1224 0.595072 19.7743C0.313413 18.5073 0.636972 18.0058 1.84275 17.6866C3.36511 17.2835 4.83393 18.1186 5.42983 19.7695C5.62769 20.319 5.73477 20.9045 5.93961 21.6868L5.9466 21.682Z" fill="#F5F1E7"/>
<path d="M5.4466 20.682C5.86327 19.6262 6.19381 18.7431 6.55461 17.872C8.6915 12.7033 11.1659 7.74324 14.9532 3.6063C15.9704 2.49528 17.097 1.51864 18.4076 0.798751C22.4043 -1.3945 26.5827 1.1419 26.72 5.80915C26.7852 8.0312 26.3755 10.1813 25.9053 12.3265C25.5422 13.9894 25.1558 15.6476 24.7554 17.4209C25.3932 17.1641 25.5026 16.6554 25.7284 16.2691C27.2833 13.5935 28.8569 10.9275 30.9705 8.6671C32.7094 6.80739 34.6623 5.36762 37.3463 5.46841C40.377 5.58359 41.9715 7.21293 42.0926 10.3468C42.2252 13.7039 41.3174 16.9122 40.7937 20.1781C40.4655 22.2201 40.0092 24.2598 40.4096 26.3571C40.7169 27.9624 41.5991 29.0231 42.8444 29.2102C44.0013 29.383 45.2374 28.6487 45.9497 27.3097C46.2267 26.7866 46.4222 26.2179 46.6596 25.6708C47.1811 24.4662 48.4311 24.2718 49.2458 25.3012C50.0419 26.3091 50.1233 27.5017 49.8766 28.7159C49.1853 32.1066 45.8566 34.9333 42.5279 34.9981C38.573 35.0725 35.7052 32.9536 34.7857 29.143C33.8732 25.3588 34.4319 21.5962 35.1814 17.8648C35.512 16.2235 35.9543 14.6062 36.3407 12.9768C36.4291 12.6049 36.6549 12.2401 36.3872 11.741C35.7401 12.0722 35.3258 12.6505 34.8649 13.1592C30.9752 17.4809 28.1842 22.5489 25.5817 27.7441C24.7275 29.4478 23.9244 31.1779 23.0515 32.8696C22.2786 34.367 21.3708 34.8157 20.037 34.475C18.6636 34.1222 17.8885 33.0736 17.9141 31.4587C18.0328 23.7367 18.8056 16.0771 20.0719 8.46793C20.1301 8.11518 20.186 7.75764 20.2139 7.4025C20.2256 7.25612 20.165 7.10495 20.1185 6.85539C19.4527 7.14334 19.1501 7.70965 18.7893 8.19437C14.9811 13.308 12.3112 19.0766 9.78788 24.9245C8.6077 27.6625 7.49503 30.4316 6.31718 33.1696C5.66541 34.6861 4.85302 35.1877 3.66353 34.9285C2.1435 34.5974 1.34508 33.5943 1.35905 31.9794C1.40095 27.5305 1.06109 23.1224 0.0950722 18.7743C-0.186587 17.5073 0.136972 17.0058 1.34275 16.6866C2.86511 16.2835 4.33393 17.1186 4.92983 18.7695C5.12769 19.319 5.23477 19.9045 5.43961 20.6868L5.4466 20.682Z" fill="url(#paint0_linear_80_3309)"/>
<path d="M38.25 6.75C39.6042 7.19643 41.4098 8.98214 40.507 13" stroke="white" stroke-linecap="round"/>
<path d="M175.812 35.6736C173.496 35.6335 171.45 35.1816 169.674 34.318C167.897 33.4544 166.51 32.2393 165.512 30.6728C164.514 29.0862 164.015 27.2385 164.015 25.1297C164.015 23.0611 164.464 21.2536 165.362 19.7071C166.28 18.1607 167.598 16.9657 169.314 16.1222C171.051 15.2586 173.097 14.8268 175.453 14.8268C177.649 14.8268 179.525 15.2184 181.082 16.0017C182.659 16.7649 183.857 17.8393 184.675 19.2251C185.513 20.5908 185.953 22.1874 185.993 24.0151C186.013 24.5774 185.993 25.1799 185.933 25.8226C185.893 26.4452 185.813 26.9573 185.693 27.359C182.918 27.4795 180.313 27.5397 177.878 27.5397C176.161 27.5397 174.525 27.5096 172.967 27.4494C173.187 27.9113 173.516 28.2828 173.956 28.564C174.415 28.8251 175.014 29.0059 175.752 29.1063C176.491 29.2067 177.179 29.2569 177.818 29.2569C179.854 29.2569 181.87 28.8954 183.867 28.1724L184.765 34.3782C182.489 35.3021 179.505 35.7339 175.812 35.6736ZM172.698 23.3824C173.776 23.4427 174.754 23.4728 175.632 23.4728C176.551 23.4728 177.369 23.4427 178.088 23.3824C178.028 22.5791 177.778 22.0067 177.339 21.6653C176.9 21.3239 176.301 21.1531 175.543 21.1531C174.764 21.1531 174.135 21.3239 173.656 21.6653C173.197 22.0067 172.878 22.5791 172.698 23.3824Z" fill="white"/>
<path d="M153.46 35.0712C152.921 29.7892 152.652 24.3063 152.652 18.6226C152.652 15.2887 152.742 11.9046 152.921 8.47034H161.844C162.024 11.9046 162.114 15.2887 162.114 18.6226C162.114 24.3063 161.844 29.7892 161.305 35.0712H153.46Z" fill="white"/>
<path d="M139.34 32.8118C138.222 32.8118 137.234 32.7415 136.376 32.6009V32.8419C136.376 33.103 136.426 33.3239 136.526 33.5046C136.905 34.1674 138.212 34.4988 140.448 34.4988C141.825 34.4988 143.293 34.3883 144.85 34.1674C146.427 33.9666 147.754 33.6854 148.832 33.3239L149.431 40.5841C148.313 41.0059 146.946 41.3473 145.329 41.6084C143.712 41.8695 142.025 42 140.268 42C132.823 42 129.1 39.9314 129.1 35.7942C129.1 34.8101 129.319 33.9264 129.758 33.1431C130.218 32.3599 130.916 31.6469 131.854 31.0042C130.597 30.241 129.629 29.2569 128.95 28.0519C128.291 26.8268 127.962 25.441 127.962 23.8946C127.962 22.0268 128.411 20.4101 129.309 19.0444C130.228 17.6586 131.535 16.5942 133.232 15.8511C134.949 15.108 136.985 14.7365 139.34 14.7365C141.137 14.7365 142.734 14.9473 144.131 15.3691C144.171 15.0076 144.191 14.7063 144.191 14.4653C144.191 14.1038 144.131 13.3406 144.011 12.1758L151.018 12.3867C151.078 12.7683 151.108 13.1398 151.108 13.5013C151.108 14.5055 150.878 15.3992 150.419 16.1825C149.96 16.9457 149.301 17.508 148.443 17.8695C149.96 19.4561 150.718 21.4645 150.718 23.8946C150.718 25.7021 150.259 27.2787 149.341 28.6243C148.443 29.9699 147.135 31.0042 145.418 31.7272C143.722 32.4502 141.696 32.8118 139.34 32.8118ZM139.34 26.6662C140.198 26.6662 140.857 26.4251 141.316 25.9431C141.795 25.4611 142.035 24.7381 142.035 23.7741C142.035 22.8101 141.795 22.0871 141.316 21.6051C140.857 21.1231 140.198 20.8821 139.34 20.8821C138.482 20.8821 137.813 21.1231 137.334 21.6051C136.875 22.0871 136.645 22.8101 136.645 23.7741C136.645 24.7381 136.875 25.4611 137.334 25.9431C137.813 26.4251 138.482 26.6662 139.34 26.6662Z" fill="white"/>
<path d="M104.043 35.0711C103.524 30.8937 103.264 26.8267 103.264 22.8702C103.264 20.2594 103.364 17.7489 103.564 15.3389H112.337L112.367 17.2669C113.165 16.5238 114.103 15.9514 115.181 15.5498C116.279 15.128 117.437 14.9171 118.655 14.9171C121.389 14.9171 123.296 16.0016 124.374 18.1707C125.472 20.3196 126.021 23.2418 126.021 26.9372C126.021 29.1464 125.841 31.8577 125.482 35.0711H117.247C117.307 33.364 117.337 31.8878 117.337 30.6426C117.337 28.4133 117.247 26.7866 117.068 25.7623C116.888 24.7179 116.629 24.0552 116.289 23.774C115.95 23.4928 115.441 23.3523 114.762 23.3523C114.024 23.3523 113.235 23.5933 112.397 24.0753C112.337 27.9313 112.207 31.5966 112.007 35.0711H104.043Z" fill="white"/>
<path d="M92.0238 35.0711C91.7044 30.7732 91.5447 26.395 91.5447 21.9364C91.5447 19.5264 91.5846 17.3272 91.6645 15.3389H100.468C100.547 17.3272 100.587 19.5264 100.587 21.9364C100.587 26.395 100.428 30.7732 100.108 35.0711H92.0238ZM96.066 14.6761C94.5489 14.6761 93.3612 14.2845 92.5029 13.5013C91.6445 12.718 91.2153 11.6636 91.2153 10.3381C91.2153 9.03263 91.6445 7.98828 92.5029 7.20502C93.3612 6.40167 94.5489 6 96.066 6C97.5632 6 98.7409 6.40167 99.5993 7.20502C100.478 7.98828 100.917 9.03263 100.917 10.3381C100.917 11.6636 100.488 12.718 99.6292 13.5013C98.7709 14.2845 97.5831 14.6761 96.066 14.6761Z" fill="white"/>
<path d="M70.507 34.7699C69.3093 31.6369 68.1315 27.6704 66.9738 22.8704C66.9738 27.6503 66.9139 31.7172 66.7941 35.0712H59.4881C58.8294 29.9699 58.5 24.7884 58.5 19.5264C58.5 16.2126 58.6198 12.8285 58.8593 9.37415H68.2912C70.1676 13.0495 71.9442 17.5181 73.621 22.78C75.2978 17.5181 77.0744 13.0495 78.9508 9.37415H88.3827C88.6223 12.8285 88.7421 16.2126 88.7421 19.5264C88.7421 24.7884 88.4127 29.9699 87.7539 35.0712H80.4479C80.3282 31.7172 80.2683 27.6704 80.2683 22.9306C79.1105 27.7507 77.9427 31.6971 76.765 34.7699H70.507Z" fill="white"/>
<defs>
<linearGradient id="paint0_linear_80_3309" x1="16.9643" y1="2.625" x2="43.0998" y2="35.5166" gradientUnits="userSpaceOnUse">
<stop stop-color="#9EFFCE"/>
<stop offset="0.4" stop-color="#CBE4FF"/>
<stop offset="1" stop-color="#FFB9FD"/>
</linearGradient>
</defs>
</svg>
