<svg width="180" height="60" viewBox="0 0 180 60" fill="none" xmlns="http://www.w3.org/2000/svg">
<path d="M8.1699 32.523C8.7949 30.9392 9.29072 29.6146 9.83192 28.308C13.0372 20.5549 16.7489 13.1149 22.4298 6.90945C23.9556 5.24292 25.6456 3.77795 27.6114 2.69813C33.6065 -0.59175 39.874 3.21284 40.08 10.2137C40.1778 13.5468 39.5633 16.7719 38.858 19.9898C38.3133 22.4842 37.7336 24.9714 37.1331 27.6314C38.0898 27.2462 38.2539 26.4831 38.5926 25.9036C40.925 21.8903 43.2854 17.8913 46.4558 14.5006C49.064 11.7111 51.9935 9.55143 56.0194 9.70261C60.5655 9.87538 62.9573 12.3194 63.1388 17.0202C63.3379 22.0558 61.9761 26.8683 61.1905 31.7671C60.6982 34.8302 60.0138 37.8897 60.6144 41.0356C61.0753 43.4436 62.3986 45.0346 64.2666 45.3153C66.002 45.5745 67.8561 44.4731 68.9245 42.4646C69.34 41.6799 69.6333 40.8269 69.9894 40.0062C70.7716 38.1993 72.6466 37.9077 73.8687 39.4519C75.0628 40.9636 75.185 42.7525 74.8149 44.5739C73.7779 49.6598 68.7848 53.9 63.7918 53.9972C57.8595 54.1087 53.5578 50.9304 52.1786 45.2146C50.8099 39.5383 51.6479 33.8944 52.7722 28.2972C53.268 25.8352 53.9314 23.4092 54.511 20.9652C54.6437 20.4073 54.9824 19.8602 54.5808 19.1115C53.6101 19.6082 52.9886 20.4757 52.2973 21.2388C46.4628 27.7213 42.2763 35.3233 38.3726 43.1161C37.0912 45.6717 35.8866 48.2669 34.5772 50.8045C33.418 53.0505 32.0562 53.7236 30.0555 53.2125C27.9955 52.6834 26.8327 51.1104 26.8711 48.688C27.0492 37.105 28.2084 25.6157 30.1079 14.2019C30.1952 13.6728 30.279 13.1365 30.3209 12.6037C30.3383 12.3842 30.2476 12.1574 30.1777 11.7831C29.1791 12.215 28.7252 13.0645 28.184 13.7916C22.4717 21.4619 18.4668 30.115 14.6818 38.8868C12.9115 42.9937 11.2425 47.1474 9.47577 51.2544C8.49811 53.5292 7.27953 54.2815 5.4953 53.8928C3.21525 53.396 2.01762 51.8915 2.03857 49.4691C2.10142 42.7957 1.59164 36.1836 0.142608 29.6614C-0.279881 27.7609 0.205458 27.0087 2.01413 26.5299C4.29766 25.9252 6.50089 27.1778 7.39475 29.6542C7.69154 30.4785 7.85216 31.3568 8.15942 32.5302L8.1699 32.523Z" fill="#F5F1E7"/>
<path d="M8.1699 31.023C8.7949 29.4392 9.29072 28.1146 9.83192 26.808C13.0372 19.0549 16.7489 11.6149 22.4298 5.40946C23.9556 3.74292 25.6456 2.27795 27.6114 1.19813C33.6065 -2.09175 39.874 1.71284 40.08 8.71373C40.1778 12.0468 39.5633 15.2719 38.858 18.4898C38.3133 20.9842 37.7336 23.4714 37.1331 26.1314C38.0898 25.7462 38.2539 24.9831 38.5926 24.4036C40.925 20.3903 43.2854 16.3913 46.4558 13.0006C49.064 10.2111 51.9935 8.05143 56.0194 8.20261C60.5655 8.37538 62.9573 10.8194 63.1388 15.5202C63.3379 20.5558 61.9761 25.3683 61.1905 30.2671C60.6982 33.3302 60.0138 36.3897 60.6144 39.5356C61.0753 41.9436 62.3986 43.5346 64.2666 43.8153C66.002 44.0745 67.8561 42.9731 68.9245 40.9646C69.34 40.1799 69.6333 39.3269 69.9894 38.5062C70.7716 36.6993 72.6466 36.4077 73.8687 37.9519C75.0628 39.4636 75.185 41.2525 74.8149 43.0739C73.7779 48.1598 68.7848 52.4 63.7918 52.4972C57.8595 52.6087 53.5578 49.4304 52.1786 43.7146C50.8099 38.0383 51.6479 32.3944 52.7722 26.7972C53.268 24.3352 53.9314 21.9092 54.511 19.4652C54.6437 18.9073 54.9824 18.3602 54.5808 17.6115C53.6101 18.1082 52.9886 18.9757 52.2973 19.7388C46.4628 26.2213 42.2763 33.8233 38.3726 41.6161C37.0912 44.1717 35.8866 46.7669 34.5772 49.3045C33.418 51.5505 32.0562 52.2236 30.0555 51.7125C27.9955 51.1834 26.8327 49.6104 26.8711 47.188C27.0492 35.605 28.2084 24.1157 30.1079 12.7019C30.1952 12.1728 30.279 11.6365 30.3209 11.1037C30.3383 10.8842 30.2476 10.6574 30.1777 10.2831C29.1791 10.715 28.7252 11.5645 28.184 12.2916C22.4717 19.9619 18.4668 28.615 14.6818 37.3868C12.9115 41.4937 11.2425 45.6474 9.47577 49.7544C8.49811 52.0292 7.27953 52.7815 5.4953 52.3928C3.21525 51.896 2.01762 50.3915 2.03857 47.9691C2.10142 41.2957 1.59164 34.6836 0.142608 28.1614C-0.279881 26.2609 0.205458 25.5087 2.01413 25.0299C4.29766 24.4252 6.50089 25.6778 7.39475 28.1542C7.69154 28.9785 7.85216 29.8568 8.15942 31.0302L8.1699 31.023Z" fill="url(#paint0_linear_325_4136)"/>
<path d="M57.375 10.125C59.4063 10.7946 62.1147 13.4732 60.7605 19.5" stroke="#FCFCFC" stroke-width="2" stroke-linecap="round"/>
<path d="M174.365 32.9379C173.909 31.7663 173.189 30.8077 172.206 30.0621C171.259 29.3166 170.065 28.9438 168.626 28.9438C168.169 28.9438 167.818 28.9615 167.572 28.997C165.852 29.2101 164.501 29.7604 163.518 30.6479C162.57 31.5 161.85 32.6183 161.359 34.003L174.365 32.9379ZM155.25 36.9852C155.25 33.2219 156.286 30.0444 158.357 27.4527C160.428 24.8254 163.219 23.2278 166.73 22.6598C167.467 22.5533 168.204 22.5 168.941 22.5C171.118 22.5 173.031 23.0148 174.681 24.0444C176.366 25.0385 177.665 26.4941 178.578 28.4112C179.526 30.2929 180 32.5118 180 35.068C180 35.8846 179.965 36.5059 179.895 36.932V37.358L161.411 38.6361C161.727 39.8432 162.447 40.9793 163.57 42.0444C164.729 43.074 165.852 43.571 166.94 43.5355H167.256C167.783 43.5 168.345 43.3225 168.941 43.003C169.573 42.6834 170.328 42.2396 171.206 41.6716C171.732 41.3521 172.294 41.1923 172.891 41.1923C173.558 41.1923 174.19 41.3876 174.787 41.7781L178.052 43.642L177.788 44.0148C176.489 45.7544 174.874 47.1036 172.944 48.0621C171.013 49.0207 168.941 49.5 166.73 49.5C164.413 49.5 162.377 48.9852 160.621 47.9556C158.901 46.926 157.567 45.4704 156.619 43.5888C155.706 41.6716 155.25 39.4704 155.25 36.9852Z" fill="white"/>
<path d="M152.25 16.5V45.5041C152.25 46.3766 151.936 47.127 151.308 47.7553C150.68 48.4184 149.913 48.75 149.006 48.75H145.5V18.7512L152.25 16.5Z" fill="white"/>
<path d="M128.503 41.9328C129.549 41.9328 130.542 41.7227 131.484 41.3025C132.46 40.8473 133.261 40.2346 133.889 39.4643V31.9538C133.331 31.3585 132.634 30.9209 131.797 30.6408C130.996 30.3606 130.142 30.2731 129.235 30.3782C127.179 30.5882 125.68 31.2535 124.739 32.3739C123.797 33.4944 123.327 34.9125 123.327 36.6281C123.327 38.2388 123.728 39.5343 124.529 40.5147C125.366 41.4601 126.691 41.9328 128.503 41.9328ZM117 37.1534C117 34.9475 117.436 32.8817 118.307 30.9559C119.179 29.0301 120.399 27.437 121.967 26.1765C123.571 24.916 125.401 24.1632 127.458 23.9181C127.632 23.8831 127.893 23.8655 128.242 23.8655C129.288 23.8655 130.316 24.1106 131.327 24.6008C132.338 25.056 133.192 25.6688 133.889 26.4391V23.3929L141 22.5V47.5525C141 50.1786 140.198 52.6296 138.595 54.9055C136.991 57.1814 134.865 58.722 132.216 59.5273C131.24 59.8424 130.229 60 129.183 60C127.057 60 125.017 59.4573 123.065 58.3718C121.113 57.2864 119.562 56.0434 118.412 54.6429L120.137 52.6471C120.73 51.9468 121.549 51.5966 122.595 51.5966C123.327 51.5966 124.024 51.7717 124.686 52.1218C126.569 53.0672 128.068 53.5399 129.183 53.5399C129.566 53.5399 129.915 53.4874 130.229 53.3824C131.309 53.0322 132.181 52.2794 132.843 51.1239C133.54 49.9685 133.889 48.883 133.889 47.8676V44.9265C132.948 46.0119 131.885 46.8873 130.699 47.5525C129.514 48.2178 128.381 48.5679 127.301 48.6029C125.244 48.708 123.431 48.2703 121.863 47.2899C120.329 46.3095 119.126 44.9265 118.255 43.1408C117.418 41.355 117 39.3592 117 37.1534Z" fill="white"/>
<path d="M103.766 23.4071C104.396 23.3024 104.99 23.25 105.55 23.25C108.314 23.25 110.414 24.2972 111.848 26.3917C113.283 28.4861 114 31.5231 114 35.5026V45.5036C114 46.3763 113.685 47.1268 113.055 47.7551C112.426 48.4184 111.656 48.75 110.746 48.75H106.81V36.0262C106.81 34.0714 106.425 32.5703 105.655 31.5231C104.92 30.4759 103.906 29.9523 102.611 29.9523C101.282 29.9523 100.057 30.4584 98.9374 31.4707C97.8177 32.4831 97.1354 33.8095 96.8905 35.4502V48.75H90.75V25.711L96.8905 24.8208V27.6484C98.535 25.2746 100.827 23.8609 103.766 23.4071Z" fill="white"/>
<path d="M86.175 23.8272V45.1296C86.175 46.1091 85.8313 46.9486 85.1438 47.6481C84.4563 48.3827 83.6141 48.75 82.6172 48.75H79.5234V24.8241L86.175 23.8272ZM78.75 15.7469C78.75 14.4177 79.2484 13.2109 80.2453 12.1265C81.2422 11.0422 82.3766 10.5 83.6484 10.5C84.6109 10.5 85.4016 10.8323 86.0203 11.4969C86.6734 12.1615 87 13.0185 87 14.0679C87 15.4321 86.5016 16.6389 85.5047 17.6883C84.5078 18.7377 83.3563 19.2623 82.05 19.2623C81.1219 19.2623 80.3313 18.93 79.6781 18.2654C79.0594 17.6008 78.75 16.7613 78.75 15.7469Z" fill="white"/>
<defs>
<linearGradient id="paint0_linear_325_4136" x1="25.4464" y1="3.9375" x2="64.6497" y2="53.275" gradientUnits="userSpaceOnUse">
<stop stop-color="#9EFFCE"/>
<stop offset="0.4" stop-color="#CBE4FF"/>
<stop offset="1" stop-color="#FFB9FD"/>
</linearGradient>
</defs>
</svg>
