<svg width="24" height="24" viewBox="0 0 24 24" fill="none" xmlns="http://www.w3.org/2000/svg">
<path fill-rule="evenodd" clip-rule="evenodd" d="M24 5.35231V1.34331C23.9998 1.28321 23.9839 1.22421 23.9538 1.17218C23.9237 1.12015 23.8805 1.07691 23.8285 1.04677C23.7765 1.01662 23.7176 1.00063 23.6575 1.00037C23.5974 1.00012 23.5382 1.01561 23.486 1.04531L20.846 2.55331C20.7409 2.61354 20.6535 2.70047 20.5927 2.8053C20.532 2.91013 20.5 3.02915 20.5 3.15031V7.15931C20.5 7.42331 20.785 7.58931 21.014 7.45731L23.654 5.94931C23.7593 5.889 23.8467 5.80191 23.9075 5.69689C23.9683 5.59187 24.0002 5.47365 24 5.35231ZM0.515 1.04631L8.158 5.42931C8.26211 5.48896 8.38001 5.52034 8.5 5.52034C8.61999 5.52034 8.73789 5.48896 8.842 5.42931L16.485 1.04631C16.5373 1.01636 16.5965 1.00067 16.6567 1.0008C16.717 1.00093 16.7761 1.01688 16.8283 1.04705C16.8804 1.07723 16.9237 1.12056 16.9539 1.17273C16.984 1.2249 16.9999 1.28407 17 1.34431V13.3743C17 13.6093 16.88 13.8273 16.681 13.9543L12.031 16.9073L15.141 18.7393C15.361 18.8693 15.636 18.8663 15.854 18.7303L20.464 15.8523C20.5134 15.8213 20.5541 15.7782 20.5822 15.7271C20.6104 15.676 20.6251 15.6186 20.625 15.5603V11.4753C20.625 11.2213 20.765 10.9893 20.987 10.8693L23.494 9.52331C23.5464 9.49535 23.6051 9.48142 23.6645 9.48288C23.7238 9.48434 23.7818 9.50114 23.8327 9.53165C23.8837 9.56215 23.9258 9.60532 23.9552 9.65696C23.9845 9.70859 23.9999 9.76694 24 9.82631V17.3573C24 17.6013 23.87 17.8273 23.66 17.9503L15.826 22.5423C15.718 22.6055 15.5949 22.6381 15.4697 22.6365C15.3446 22.6349 15.2223 22.5992 15.116 22.5333L9.163 18.8523C9.11309 18.8214 9.07192 18.7783 9.04339 18.727C9.01486 18.6757 8.99992 18.618 9 18.5593V14.9353C9 14.8203 9.057 14.7133 9.153 14.6493L13.193 11.9553C13.2873 11.8926 13.3647 11.8076 13.4182 11.7078C13.4718 11.608 13.4999 11.4966 13.5 11.3833V6.99331C13.5 6.96903 13.4935 6.94519 13.4812 6.92424C13.4689 6.90329 13.4513 6.88598 13.4302 6.87407C13.409 6.86217 13.3851 6.8561 13.3608 6.8565C13.3365 6.85689 13.3128 6.86373 13.292 6.87631L8.852 9.54031C8.7456 9.6042 8.62389 9.63812 8.49978 9.63848C8.37566 9.63883 8.25377 9.6056 8.147 9.54231L3.645 6.87431C3.62411 6.86201 3.60034 6.85544 3.5761 6.85524C3.55186 6.85505 3.52799 6.86125 3.5069 6.87321C3.48582 6.88517 3.46825 6.90248 3.45598 6.92339C3.44371 6.9443 3.43716 6.96807 3.437 6.99231V14.9253C3.4369 14.986 3.42072 15.0457 3.39012 15.0981C3.35951 15.1506 3.31556 15.194 3.26274 15.2239C3.20992 15.2539 3.15011 15.2694 3.08938 15.2687C3.02865 15.2681 2.96918 15.2514 2.917 15.2203L0.5 13.7703C0.19 13.5843 0 13.2483 0 12.8863V1.34431C0 1.08031 0.286 0.914311 0.515 1.04631Z" fill="#0073E6"/>
</svg>
